<svg width="60" height="60" viewBox="0 0 60 60" fill="none" xmlns="http://www.w3.org/2000/svg">
<path d="M26.769 29.9493C26.5626 29.8345 26.3686 29.5546 9.51471 16.5854L10.1825 20.9288C10.3953 22.2943 9.54888 23.6086 8.29906 23.8125C6.86787 24.0592 5.77403 22.8387 5.66733 21.7395L3.97451 10.6039C3.86864 9.94652 4.0207 9.26553 4.37416 8.72335C4.72761 8.18117 5.26411 7.81105 5.87137 7.711L16.076 5.91727C17.3283 5.70141 18.5059 6.62751 18.7053 8.0022C18.9046 9.37689 18.0632 10.6672 16.8109 10.8831L11.3441 11.8462C28.0409 24.8518 28.5542 25.3126 28.7605 25.4275C29.9016 26.029 30.3838 27.5377 29.8271 28.7859C29.3538 29.8531 28.0289 30.6437 26.769 29.9493Z" fill="#333399"/>
<path d="M29.5071 34.7555C29.3504 34.9416 29.0512 35.0707 13.0842 49.3107L17.1031 49.7687C18.3673 49.9097 19.3036 51.1495 19.1502 52.5167C18.9863 54.0857 17.6151 54.9088 16.6147 54.7275L6.31617 53.5329C5.70664 53.4687 5.14507 53.1272 4.76 52.6112C4.37493 52.0952 4.19086 51.4329 4.2645 50.7684L5.40243 39.5714C5.54584 38.1985 6.67909 37.2088 7.94787 37.3664C9.21665 37.524 10.133 38.7522 9.98959 40.1252L9.38196 46.1242C25.3391 32.0588 25.8836 31.6428 26.0402 31.4567C26.8767 30.4188 28.3395 30.315 29.2947 31.2329C30.112 32.0149 30.4574 33.6176 29.5071 34.7555Z" fill="#333399"/>
<path d="M30.7543 26.3443C30.8953 26.1439 31.1829 25.9866 45.9358 10.2678L41.8955 10.1977C40.6248 10.1787 39.5919 9.03368 39.6341 7.65714C39.6704 6.07844 40.9697 5.1268 41.9809 5.2113L52.3359 5.41163C52.9483 5.4171 53.5353 5.7033 53.9606 6.18026C54.3859 6.65722 54.6228 7.29925 54.6032 7.96827L54.3755 19.231C54.3437 20.6123 53.2949 21.707 52.0184 21.672C50.7418 21.6369 49.7296 20.5015 49.7614 19.1202L49.8814 13.0861C35.1242 28.63 34.6155 29.0967 34.4745 29.2971C33.7252 30.4114 32.2765 30.6553 31.2509 29.8328C30.3734 29.1323 29.8997 27.5691 30.7543 26.3443Z" fill="#333399"/>
<path d="M33.8954 31.1108C34.1112 31.2027 34.3299 31.4601 52.2862 42.5333L51.2244 38.2841C50.8878 36.9485 51.6097 35.5488 52.8347 35.2101C54.2362 34.8092 55.4362 35.9047 55.6429 36.9868L58.346 47.883C58.5115 48.5256 58.4225 49.2197 58.1204 49.7976C57.8183 50.3755 57.3183 50.802 56.7233 50.9676L46.7336 53.8612C45.5072 54.2121 44.2508 53.4186 43.9267 52.0724C43.6025 50.7262 44.3218 49.3509 45.5481 49L50.8995 47.4476C33.0961 36.3212 32.5433 35.9184 32.3274 35.8266C31.137 35.352 30.5192 33.9032 30.9589 32.6008C31.3322 31.4874 32.5782 30.5568 33.8954 31.1108Z" fill="#333399"/>
</svg>
